<?xml version="1.0" encoding="UTF-8" standalone="no"?>
<svg xmlns="http://www.w3.org/2000/svg" xmlns:xlink="http://www.w3.org/1999/xlink" xmlns:serif="http://www.serif.com/" width="100%" height="100%" viewBox="0 0 9527 9973" version="1.1" xml:space="preserve" style="fill-rule:evenodd;clip-rule:evenodd;stroke-linejoin:round;stroke-miterlimit:2;">
    <g transform="matrix(1,0,0,1,-3569.84,-2824.92)">
        <g transform="matrix(4.16667,0,0,4.16667,0,0)">
            <path d="M1581.14,865.413L1598.47,908.874C1602.59,919.226 1612.46,925.932 1623.6,925.959L1623.66,929.185L1623.66,925.959C1627.1,925.959 1630.48,925.308 1633.69,924.023C1640.43,921.34 1645.71,916.198 1648.57,909.544C1651.43,902.891 1651.53,895.521 1648.84,888.792L1631.52,845.332C1627.39,834.954 1617.5,828.249 1606.33,828.249C1602.89,828.249 1599.51,828.9 1596.29,830.187C1589.56,832.867 1584.28,838.007 1581.42,844.661C1578.56,851.314 1578.46,858.684 1581.14,865.413Z" style="fill:rgb(51,49,50);fill-rule:nonzero;"></path>
        </g>
        <g transform="matrix(4.16667,0,0,4.16667,0,0)">
            <path d="M1534.77,749.103C1538.9,759.45 1548.77,766.156 1559.91,766.186L1559.97,769.411L1559.97,766.186C1563.4,766.186 1566.78,765.535 1570.01,764.25C1576.73,761.568 1582.01,756.426 1584.88,749.771C1587.74,743.117 1587.83,735.748 1585.15,729.021L1571.62,695.063C1567.48,684.686 1557.59,677.98 1546.42,677.98C1542.99,677.98 1539.61,678.631 1536.39,679.915C1522.5,685.453 1515.7,701.259 1521.24,715.147L1534.77,749.103Z" style="fill:rgb(51,49,50);fill-rule:nonzero;"></path>
        </g>
        <g transform="matrix(4.16667,0,0,4.16667,0,0)">
            <path d="M2922.33,1484.35L2922.38,1487.58L2922.38,1484.35C2925.82,1484.35 2929.2,1483.7 2932.42,1482.42L3002.38,1454.53C3016.27,1448.99 3023.07,1433.18 3017.53,1419.29C3013.39,1408.92 3003.5,1402.21 2992.33,1402.21C2988.9,1402.21 2985.52,1402.86 2982.29,1404.15L2912.34,1432.04C2898.45,1437.58 2891.65,1453.38 2897.19,1467.27C2901.32,1477.62 2911.19,1484.33 2922.33,1484.35Z" style="fill:rgb(51,49,50);fill-rule:nonzero;"></path>
        </g>
        <g transform="matrix(4.16667,0,0,4.16667,0,0)">
            <path d="M3141.3,1369.96C3137.16,1359.58 3127.27,1352.87 3116.1,1352.87C3112.66,1352.87 3109.29,1353.52 3106.07,1354.81L3077.55,1366.18C3070.82,1368.86 3065.54,1374 3062.67,1380.66C3059.81,1387.31 3059.71,1394.68 3062.4,1401.41C3066.52,1411.76 3076.39,1418.47 3087.53,1418.49L3087.6,1421.72L3087.61,1418.49C3091.03,1418.49 3094.4,1417.84 3097.63,1416.56L3126.15,1405.19C3132.88,1402.5 3138.16,1397.36 3141.02,1390.71C3143.88,1384.05 3143.98,1376.68 3141.3,1369.96Z" style="fill:rgb(51,49,50);fill-rule:nonzero;"></path>
        </g>
        <g transform="matrix(4.16667,0,0,4.16667,0,0)">
            <path d="M2377.96,933.969C2381.36,935.43 2384.94,936.175 2388.59,936.181L2388.66,939.405L2388.66,936.181C2399.51,936.182 2409.29,929.739 2413.58,919.769L2434.85,870.296C2440.75,856.561 2434.38,840.579 2420.65,834.671C2417.23,833.205 2413.64,832.462 2409.96,832.462C2399.1,832.462 2389.31,838.905 2385.02,848.875L2363.75,898.345C2360.89,904.999 2360.79,912.369 2363.48,919.098C2366.16,925.827 2371.3,931.107 2377.96,933.969Z" style="fill:rgb(51,49,50);fill-rule:nonzero;"></path>
        </g>
        <g transform="matrix(4.16667,0,0,4.16667,0,0)">
            <path d="M2448.67,769.499C2452.06,770.954 2455.64,771.697 2459.3,771.707L2459.36,774.931L2459.36,771.707C2470.22,771.707 2480.01,765.266 2484.29,755.297L2495.95,728.173C2498.81,721.518 2498.91,714.147 2496.23,707.418C2493.55,700.69 2488.41,695.41 2481.75,692.55C2478.34,691.081 2474.74,690.336 2471.06,690.336C2460.2,690.336 2450.42,696.777 2446.13,706.746L2434.47,733.871C2428.56,747.604 2434.94,763.587 2448.67,769.499Z" style="fill:rgb(51,49,50);fill-rule:nonzero;"></path>
        </g>
        <g transform="matrix(4.16667,0,0,4.16667,0,0)">
            <path d="M925.367,1395.16L925.438,1398.39L925.438,1395.16C936.29,1395.16 946.074,1388.72 950.363,1378.75C956.266,1365.01 949.894,1349.03 936.156,1343.13L894.603,1325.26C891.187,1323.79 887.587,1323.05 883.904,1323.05C873.049,1323.05 863.267,1329.49 858.982,1339.46C856.12,1346.11 856.021,1353.48 858.703,1360.21C861.385,1366.94 866.527,1372.22 873.183,1375.08L914.736,1392.95C918.129,1394.41 921.705,1395.15 925.367,1395.16Z" style="fill:rgb(51,49,50);fill-rule:nonzero;"></path>
        </g>
        <g transform="matrix(4.16667,0,0,4.16667,0,0)">
            <path d="M1017.82,1437.27L1064.78,1457.46C1068.17,1458.92 1071.75,1459.66 1075.41,1459.67L1075.46,1462.9L1075.46,1459.67C1086.32,1459.67 1096.11,1453.23 1100.4,1443.26C1106.31,1429.52 1099.94,1413.54 1086.2,1407.63L1039.24,1387.44C1035.82,1385.98 1032.23,1385.23 1028.54,1385.23C1017.69,1385.23 1007.9,1391.67 1003.62,1401.65C1000.76,1408.3 1000.66,1415.67 1003.34,1422.4C1006.02,1429.13 1011.16,1434.41 1017.82,1437.27Z" style="fill:rgb(51,49,50);fill-rule:nonzero;"></path>
        </g>
        <g transform="matrix(4.16667,0,0,4.16667,0,0)">
            <path d="M1366.91,1235.9C1372.02,1241.03 1378.82,1243.87 1386.07,1243.89L1386.13,1247.11L1386.13,1243.89C1393.35,1243.89 1400.14,1241.08 1405.26,1235.99C1415.85,1225.45 1415.9,1208.24 1405.35,1197.64L1278.57,1070.25C1273.44,1065.09 1266.61,1062.26 1259.35,1062.26C1252.13,1062.26 1245.34,1065.06 1240.22,1070.16C1235.08,1075.26 1232.25,1082.07 1232.23,1089.31C1232.21,1096.56 1235.02,1103.37 1240.13,1108.51L1366.91,1235.9Z" style="fill:rgb(51,49,50);fill-rule:nonzero;"></path>
        </g>
        <g transform="matrix(4.16667,0,0,4.16667,0,0)">
            <path d="M2604.38,1246.81L2604.46,1250.04L2604.46,1246.81C2611.67,1246.81 2618.46,1244.01 2623.57,1238.92L2750.97,1112.13C2756.1,1107.02 2758.94,1100.22 2758.96,1092.98C2758.97,1085.73 2756.17,1078.92 2751.06,1073.78C2745.93,1068.63 2739.11,1065.8 2731.84,1065.8C2724.62,1065.8 2717.83,1068.6 2712.71,1073.69L2585.31,1200.48C2574.72,1211.02 2574.68,1228.23 2585.22,1238.83C2590.34,1243.96 2597.14,1246.8 2604.38,1246.81Z" style="fill:rgb(51,49,50);fill-rule:nonzero;"></path>
        </g>
        <g transform="matrix(4.16667,0,0,4.16667,0,0)">
            <path d="M1995.83,993.027L1995.91,996.251L1995.91,993.027C2010.82,993.028 2022.98,980.893 2023.01,965.977L2023.45,786.244C2023.48,771.292 2011.34,759.099 1996.39,759.063C1981.41,759.063 1969.25,771.199 1969.21,786.115L1968.78,965.846C1968.76,973.09 1971.56,979.905 1976.67,985.04C1981.78,990.174 1988.59,993.01 1995.83,993.027Z" style="fill:rgb(51,49,50);fill-rule:nonzero;"></path>
        </g>
        <g transform="matrix(4.16667,0,0,4.16667,0,0)">
            <path d="M925.497,1824.82C925.479,1832.07 928.283,1838.88 933.392,1844.02C938.501,1849.15 945.304,1851.99 952.547,1852.01L1132.28,1852.44L1132.34,1855.66L1132.34,1852.44C1147.26,1852.44 1159.43,1840.3 1159.46,1825.38C1159.5,1810.43 1147.36,1798.24 1132.41,1798.2L952.677,1797.77C937.695,1797.77 925.531,1809.91 925.497,1824.82Z" style="fill:rgb(51,49,50);fill-rule:nonzero;"></path>
        </g>
        <g transform="matrix(4.16667,0,0,4.16667,0,0)">
            <path d="M2855.24,1856.58L3034.97,1857.01L3035.04,1860.23L3035.04,1857.01C3049.95,1857.01 3062.12,1844.87 3062.15,1829.96C3062.18,1815.01 3050.05,1802.81 3035.1,1802.77L2855.37,1802.34C2840.38,1802.34 2828.22,1814.48 2828.18,1829.4C2828.17,1836.64 2830.97,1843.46 2836.08,1848.59C2841.19,1853.72 2847.99,1856.56 2855.24,1856.58Z" style="fill:rgb(51,49,50);fill-rule:nonzero;"></path>
        </g>
        <g transform="matrix(4.16667,0,0,4.16667,0,0)">
            <path d="M1993.82,1181C2119.73,1181 2222.16,1283.43 2222.16,1409.33C2222.16,1535.23 2119.73,1637.66 1993.82,1637.66C1867.92,1637.66 1765.49,1535.23 1765.49,1409.33C1765.49,1283.43 1867.92,1181 1993.82,1181ZM1993.82,1690.31C2148.76,1690.31 2274.81,1564.27 2274.81,1409.33C2274.81,1254.39 2148.76,1128.34 1993.82,1128.34C1838.89,1128.34 1712.84,1254.39 1712.84,1409.33C1712.84,1564.27 1838.89,1690.31 1993.82,1690.31Z" style="fill:rgb(51,49,50);fill-rule:nonzero;"></path>
        </g>
        <g transform="matrix(4.16667,0,0,4.16667,0,0)">
            <path d="M2481.54,2374.9C2355.64,2374.9 2253.22,2272.47 2253.22,2146.56C2253.22,2020.66 2355.64,1918.23 2481.54,1918.23C2607.45,1918.23 2709.88,2020.66 2709.88,2146.56C2709.88,2272.47 2607.45,2374.9 2481.54,2374.9ZM2481.54,1865.58C2326.61,1865.58 2200.56,1991.63 2200.56,2146.56C2200.56,2301.5 2326.61,2427.55 2481.54,2427.55C2636.48,2427.55 2762.53,2301.5 2762.53,2146.56C2762.53,1991.63 2636.48,1865.58 2481.54,1865.58Z" style="fill:rgb(51,49,50);fill-rule:nonzero;"></path>
        </g>
        <g transform="matrix(4.16667,0,0,4.16667,0,0)">
            <path d="M1507.84,1918.23C1633.75,1918.23 1736.18,2020.66 1736.18,2146.56C1736.18,2272.47 1633.75,2374.9 1507.84,2374.9C1381.94,2374.9 1279.51,2272.47 1279.51,2146.56C1279.51,2020.66 1381.94,1918.23 1507.84,1918.23ZM1507.84,2427.55C1662.78,2427.55 1788.83,2301.5 1788.83,2146.56C1788.83,1991.63 1662.78,1865.58 1507.84,1865.58C1352.91,1865.58 1226.86,1991.63 1226.86,2146.56C1226.86,2301.5 1352.91,2427.55 1507.84,2427.55Z" style="fill:rgb(51,49,50);fill-rule:nonzero;"></path>
        </g>
        <g transform="matrix(4.16667,0,0,4.16667,0,0)">
            <path d="M2967.72,2037.11C2897.43,2037.11 2840.25,2094.3 2840.25,2164.58C2840.25,2307.83 2744.53,2520.22 2539.11,2521.14L2422.1,2521.14C2216.45,2520.22 2120.64,2307.83 2120.64,2164.58C2120.64,2094.3 2063.46,2037.11 1993.17,2037.11C1922.89,2037.11 1865.7,2094.3 1865.7,2164.58C1865.7,2171.41 1865.84,2178.79 1866.15,2187.76C1860.91,2264.19 1831.33,2345.31 1786.97,2404.84C1747.78,2457.44 1677.56,2520.23 1565.63,2520.73L1448.61,2520.73C1243.13,2519.81 1147.4,2307.42 1147.4,2164.18C1147.4,2093.88 1090.22,2036.7 1019.93,2036.7C949.637,2036.7 892.451,2093.88 892.451,2164.18C892.451,2210.16 897.335,2260.11 906.573,2308.64C916.758,2362.15 931.903,2413.44 951.595,2461.08C973.514,2514.14 1000.65,2561.5 1032.26,2601.82C1067.66,2647 1108.67,2683.29 1154.11,2709.65C1155.43,2710.43 1156.84,2711.08 1158.18,2711.56C1175.91,2718.41 1192.55,2738.82 1206.32,2770.59C1219.04,2799.91 1229.34,2838.45 1236.92,2885.13C1250.13,2966.43 1250.32,3044.25 1250.32,3045.03C1250.32,3059.28 1261.92,3070.87 1276.16,3070.87C1290.41,3070.87 1302,3059.27 1302,3045.02C1302,3041.7 1301.85,2962.83 1288.04,2877.46C1279.78,2826.41 1268.28,2783.63 1253.86,2750.29C1234.52,2705.57 1209.18,2676.56 1178.62,2664.07L1178.13,2663.82C1017.37,2569.08 944.135,2338.46 944.135,2164.18C944.135,2122.39 978.133,2088.38 1019.93,2088.38C1061.72,2088.38 1095.72,2122.39 1095.72,2164.18C1095.72,2204.43 1102.53,2248.66 1115.42,2292.1C1129.59,2339.89 1150.95,2385.44 1177.18,2423.83C1207.77,2468.58 1244.72,2503.97 1287,2529.03C1335.21,2557.6 1389.63,2572.2 1448.78,2572.42L1565.77,2572.42C1624.81,2572.2 1679.19,2557.6 1727.41,2529.03C1769.69,2503.97 1806.64,2468.58 1837.22,2423.83C1855.8,2396.64 1871.8,2366.14 1884.81,2333.17C1894.73,2378.05 1908.16,2421.13 1924.84,2461.49C1936.12,2488.78 1948.96,2514.89 1963.03,2539.17C1927.05,2593.54 1884.38,2635.49 1836.13,2663.9L1835.65,2664.13C1805.12,2676.68 1779.84,2705.66 1760.54,2750.29C1746.12,2783.63 1734.63,2826.41 1726.37,2877.46C1712.56,2962.81 1712.4,3041.7 1712.4,3045.02C1712.4,3059.27 1723.99,3070.87 1738.24,3070.87C1752.49,3070.87 1764.08,3059.26 1764.08,3045.03C1764.09,3041.81 1764.5,2965.03 1777.47,2885.14C1785.06,2838.46 1795.36,2799.92 1808.08,2770.58C1821.65,2739.28 1838.77,2718.31 1856.14,2711.59C1857.62,2711.06 1859.02,2710.4 1860.29,2709.66C1905.74,2683.29 1946.74,2647 1982.15,2601.82C1985.66,2597.33 1989.42,2592.32 1993.66,2586.48C1997.54,2591.86 2001.51,2597.13 2005.5,2602.22C2040.91,2647.41 2081.9,2683.69 2127.36,2710.06C2128.67,2710.83 2130.07,2711.48 2131.39,2711.95C2148.88,2718.72 2166,2739.68 2179.57,2770.99C2192.29,2800.31 2202.58,2838.86 2210.17,2885.54C2223.15,2965.41 2223.56,3042.2 2223.57,3045.39C2223.57,3059.66 2235.16,3071.27 2249.41,3071.27C2263.66,3071.27 2275.25,3059.68 2275.25,3045.43C2275.25,3042.11 2275.09,2963.2 2261.28,2877.87C2253.03,2826.83 2241.53,2784.05 2227.11,2750.71C2207.77,2706 2182.46,2677 2151.84,2664.47L2151.38,2664.23C1990.61,2569.48 1917.38,2338.86 1917.38,2164.58C1917.38,2122.79 1951.38,2088.8 1993.17,2088.8C2034.96,2088.8 2068.97,2122.79 2068.97,2164.58C2068.97,2204.83 2075.78,2249.07 2088.67,2292.52C2102.84,2340.31 2124.2,2385.86 2150.43,2424.23C2181,2468.97 2217.95,2504.37 2260.24,2529.44C2308.46,2558.01 2362.85,2572.61 2421.94,2572.82L2538.93,2572.82C2598.03,2572.61 2652.44,2558.01 2700.65,2529.44C2742.94,2504.37 2779.89,2468.98 2810.46,2424.23C2836.7,2385.86 2858.06,2340.31 2872.23,2292.51C2885.12,2249.07 2891.93,2204.83 2891.93,2164.58C2891.93,2122.79 2925.93,2088.8 2967.72,2088.8C3009.52,2088.8 3043.52,2122.79 3043.52,2164.58C3043.52,2338.92 2970.23,2569.65 2809.42,2664.28L2808.89,2664.54C2778.36,2677.09 2753.09,2706.07 2733.79,2750.71C2719.37,2784.03 2707.87,2826.81 2699.61,2877.87C2685.8,2963.23 2685.65,3042.11 2685.65,3045.43C2685.65,3059.68 2697.24,3071.27 2711.49,3071.27C2725.74,3071.27 2737.33,3059.68 2737.33,3045.44C2737.33,3044.66 2737.52,2966.84 2750.73,2885.54C2758.31,2838.86 2768.61,2800.31 2781.32,2770.99C2794.81,2739.89 2811.74,2719.01 2829.33,2712.02C2830.85,2711.47 2832.24,2710.83 2833.54,2710.06C2878.99,2683.69 2919.99,2647.41 2955.39,2602.23C2959.46,2597.04 2963.6,2591.52 2967.71,2585.83L2976.57,2573.52C2978.68,2570.79 3028.49,2505.28 3061.74,2392.42C3094.82,2280.25 3094.95,2186.51 3094.94,2182.88L3094.95,2182.46C3095.11,2176.31 3095.2,2170.3 3095.2,2164.58C3095.2,2094.3 3038.01,2037.11 2967.72,2037.11Z" style="fill:rgb(51,49,50);fill-rule:nonzero;"></path>
        </g>
        <g transform="matrix(4.16667,0,0,4.16667,0,0)">
            <path d="M1381.8,1448.35L1381.8,1448.58C1381.79,1452.52 1381.93,1546.26 1415,1658.43C1430.23,1710.1 1450.91,1758.51 1476.48,1802.34L1476.81,1802.88C1477.08,1803.38 1477.37,1803.87 1477.67,1804.35L1479.8,1807.94L1480.41,1807.94C1485.33,1813.37 1492.31,1816.54 1499.9,1816.54C1514.48,1816.54 1526.35,1804.68 1526.35,1790.09C1526.35,1786.56 1525.65,1783.1 1524.27,1779.83C1523.96,1779.07 1523.62,1778.33 1523.21,1777.63C1466.87,1679.89 1433.23,1550.15 1433.23,1430.59C1433.23,1388.8 1467.24,1354.8 1509.02,1354.8C1550.82,1354.8 1584.82,1388.8 1584.82,1430.59C1584.82,1470.83 1591.63,1515.07 1604.51,1558.52C1618.69,1606.32 1640.05,1651.87 1666.28,1690.24C1696.86,1734.99 1733.81,1770.38 1776.1,1795.45C1824.32,1824.02 1878.73,1838.62 1937.85,1838.83L2049.83,1838.83C2108.92,1838.62 2163.33,1824.02 2211.55,1795.45C2253.84,1770.39 2290.79,1734.99 2321.37,1690.24C2347.6,1651.86 2368.96,1606.32 2383.13,1558.52C2396.02,1515.07 2402.83,1470.83 2402.83,1430.59C2402.83,1388.8 2436.83,1354.8 2478.63,1354.8C2520.42,1354.8 2554.42,1388.8 2554.42,1430.59C2554.42,1549.38 2520.95,1678.72 2464.87,1776.61C2464.64,1777 2464.44,1777.41 2464.26,1777.81C2462.2,1781.7 2461.16,1785.83 2461.16,1790.09C2461.16,1804.68 2473.02,1816.54 2487.61,1816.54C2494.94,1816.54 2501.78,1813.52 2506.69,1808.34L2507.56,1808.34L2510.82,1802.74C2536.7,1758.39 2557.5,1709.83 2572.64,1658.43C2605.72,1546.26 2605.86,1452.52 2605.85,1448.8L2605.85,1448.47C2606.01,1442.32 2606.1,1436.31 2606.1,1430.59C2606.1,1360.3 2548.91,1303.12 2478.63,1303.12C2408.34,1303.12 2351.15,1360.3 2351.15,1430.59C2351.15,1573.84 2255.43,1786.23 2050.01,1787.15L1937.68,1787.15C1732.22,1786.23 1636.49,1573.84 1636.49,1430.59C1636.49,1360.3 1579.31,1303.12 1509.02,1303.12C1438.73,1303.12 1381.55,1360.3 1381.55,1430.59C1381.55,1436.31 1381.63,1442.32 1381.8,1448.35Z" style="fill:rgb(51,49,50);fill-rule:nonzero;"></path>
        </g>
    </g>
</svg>
