<?xml version="1.0" encoding="UTF-8" standalone="no"?>
<svg xmlns="http://www.w3.org/2000/svg" xmlns:xlink="http://www.w3.org/1999/xlink" xmlns:serif="http://www.serif.com/" width="100%" height="100%" viewBox="0 0 2047 2203" version="1.1" xml:space="preserve" style="fill-rule:evenodd;clip-rule:evenodd;stroke-linejoin:round;stroke-miterlimit:2;">
    <g transform="matrix(1,0,0,1,-1060.3,-982.225)">
        <g transform="matrix(4.16667,0,0,4.16667,0,0)">
            <path d="M556.403,388.621C570.919,384.125 588.849,390.778 606.189,397.208C614.899,400.441 623.122,403.496 630.986,405.188C655.854,410.542 663.001,424.069 673.812,444.55C678.105,452.68 682.973,461.892 689.568,471.39C691.081,473.569 693.912,474.695 696.608,474.479C710.4,473.182 712.909,475.146 713.167,476.351C713.469,480.501 702.558,493.691 696.694,500.774C688.615,510.545 681.632,518.976 679.561,526.166C677.389,533.7 675.726,541.284 674.069,548.833C669.46,569.938 665.102,589.866 649.438,607.258C640.233,617.473 632.319,622.541 627.781,621.301C616.979,618.211 610.684,583.013 606.089,557.306C599.666,521.355 594.117,490.301 576.432,482.702C568.195,479.161 560.095,478.487 552.582,478.487C550.209,478.487 547.901,478.559 545.665,478.623C528.667,479.061 520.065,479.361 516.057,452.472C512.659,429.711 537.578,394.449 556.403,388.621ZM546.087,493.297C554.324,493.039 562.783,492.817 570.64,496.193C581.056,500.667 586.92,533.506 591.637,559.887C598.347,597.408 604.139,629.817 623.746,635.416C625.559,635.932 627.409,636.197 629.294,636.197C638.592,636.19 648.807,629.889 660.349,617.079C678.607,596.806 683.597,574.017 688.414,551.973C689.998,544.732 691.583,537.456 693.668,530.237C694.895,525.979 701.862,517.563 708.006,510.137C719.662,496.05 729.727,483.885 727.548,473.433C724.637,459.44 708.701,458.88 699.282,459.533C694.357,452.013 690.521,444.744 686.794,437.69C675.438,416.198 665.639,397.631 634.083,390.835C627.244,389.359 619.495,386.491 611.293,383.445C592.562,376.498 571.328,368.642 552.059,374.599C527.09,382.326 496.982,424.098 501.534,454.637C507.456,494.394 528.761,493.756 546.087,493.297Z" style="fill:rgb(35,31,32);fill-rule:nonzero;"></path>
        </g>
        <g transform="matrix(4.16667,0,0,4.16667,0,0)">
            <path d="M395.265,729.745C404.427,720.24 413.543,715.432 421.697,715.562C426.034,715.605 428.271,716.852 431.984,718.924C436.163,721.261 441.368,724.164 450.378,725.755C460.909,727.641 467.375,725.971 474.859,724.064C481.312,722.415 489.347,720.365 503.542,719.677C516.18,719.06 522.072,718.895 529.8,721.397C534.18,722.809 537.055,724.444 545.585,729.311L554.217,734.208C557.092,735.824 559.795,737.33 562.303,738.716C539.716,745.776 515.706,749.584 490.824,749.584C457.665,749.584 425.176,742.724 395.265,729.745ZM665.446,360.125C661.252,359.179 655.976,357.817 650.04,356.283C635.975,352.641 618.469,348.11 602.519,345.795C578.525,342.296 568.081,337.658 563.966,328.69C560.948,322.103 580.103,302.03 587.307,294.475C588.396,293.332 589.431,292.244 590.421,291.196C625.944,307.464 656.833,332.151 680.53,362.691C675.84,362.105 670.58,361.28 665.446,360.125ZM702.741,368.425C702.385,367.62 701.892,366.89 701.285,366.266C674.371,326.86 636.691,295.375 592.516,276.061C591.909,275.682 591.263,275.403 590.596,275.219C559.939,262.117 526.215,254.853 490.824,254.853C486.767,254.853 483.483,258.136 483.483,262.194C483.483,266.251 486.767,269.535 490.824,269.535C520.778,269.535 549.46,275.066 575.923,285.135C561.259,300.516 543.578,319.429 550.618,334.805C558.898,352.863 580.655,357.444 600.404,360.318C615.566,362.526 632.642,366.942 646.37,370.491C652.478,372.075 657.911,373.48 662.227,374.448C673.864,377.064 685.796,378.117 691.812,378.51C716.479,416.214 730.845,461.239 730.845,509.563C730.845,610.114 668.688,696.407 580.784,732.075C576.141,729.571 569.439,725.917 561.414,721.412L552.862,716.558C543.858,711.425 540.13,709.296 534.309,707.425C523.714,704.006 515.419,704.407 502.832,705.009C487.154,705.776 477.949,708.121 471.232,709.834C464.214,711.626 460.343,712.615 452.931,711.304C446.364,710.142 442.852,708.178 439.138,706.106C434.822,703.698 429.926,700.959 421.84,700.88C407.928,700.584 394.362,708.235 381.371,723.185C364.042,714.306 347.735,703.292 332.863,690.285C329.816,687.618 325.185,687.912 322.504,690.98C319.837,694.034 320.146,698.665 323.199,701.339C369.595,741.921 429.124,764.266 490.824,764.266C631.266,764.266 745.527,650.004 745.527,509.563C745.527,457.397 729.753,408.853 702.741,368.425Z" style="fill:rgb(35,31,32);fill-rule:nonzero;"></path>
        </g>
        <g transform="matrix(4.16667,0,0,4.16667,0,0)">
            <path d="M304.073,572.023C304.073,553.113 313.658,535.664 329.708,525.341C332.139,523.778 333.35,520.954 332.941,518.151L332.941,337.673C332.941,322.948 344.92,310.97 359.645,310.97C374.376,310.97 386.355,322.948 386.355,337.673L386.355,517.764C385.782,520.69 387.043,523.707 389.588,525.341C405.639,535.664 415.224,553.113 415.224,572.023C415.224,602.669 390.291,627.602 359.645,627.602C329.006,627.602 304.073,602.669 304.073,572.023ZM429.905,572.023C429.905,549.507 419.188,528.639 401.037,515.398L401.037,337.673C401.037,314.855 382.47,296.288 359.645,296.288C336.827,296.288 318.26,314.855 318.26,337.673L318.26,515.398C300.109,528.639 289.392,549.507 289.392,572.023C289.392,610.763 320.905,642.284 359.645,642.284C398.384,642.284 429.905,610.763 429.905,572.023Z" style="fill:rgb(35,31,32);fill-rule:nonzero;"></path>
        </g>
        <g transform="matrix(4.16667,0,0,4.16667,0,0)">
            <path d="M352.318,570.533C352.318,566.489 355.602,563.199 359.645,563.199C363.688,563.199 366.979,566.489 366.979,570.533C366.979,574.576 363.688,577.866 359.645,577.866C355.602,577.866 352.318,574.576 352.318,570.533ZM381.66,570.533C381.66,560.969 375.524,552.812 366.985,549.781L366.985,340.913C366.985,336.855 363.702,333.572 359.645,333.572C355.587,333.572 352.304,336.855 352.304,340.913L352.304,549.782C343.768,552.813 337.637,560.97 337.637,570.533C337.637,582.669 347.508,592.547 359.645,592.547C371.781,592.547 381.66,582.669 381.66,570.533Z" style="fill:rgb(35,31,32);fill-rule:nonzero;"></path>
        </g>
        <g transform="matrix(4.16667,0,0,4.16667,0,0)">
            <path d="M423.381,340.913C423.381,344.971 426.665,348.254 430.722,348.254L457.482,348.254C461.54,348.254 464.823,344.971 464.823,340.913C464.823,336.855 461.54,333.572 457.482,333.572L430.722,333.572C426.665,333.572 423.381,336.855 423.381,340.913Z" style="fill:rgb(35,31,32);fill-rule:nonzero;"></path>
        </g>
        <g transform="matrix(4.16667,0,0,4.16667,0,0)">
            <path d="M409.904,297.994C411.782,297.994 413.661,297.277 415.094,295.844L434.02,276.918C436.887,274.051 436.887,269.406 434.02,266.538C431.152,263.671 426.507,263.671 423.64,266.538L404.714,285.463C401.847,288.331 401.847,292.976 404.714,295.844C406.148,297.277 408.026,297.994 409.904,297.994Z" style="fill:rgb(35,31,32);fill-rule:nonzero;"></path>
        </g>
        <g transform="matrix(4.16667,0,0,4.16667,0,0)">
            <path d="M359.645,277.184C363.702,277.184 366.985,273.9 366.985,269.843L366.985,243.075C366.985,239.018 363.702,235.734 359.645,235.734C355.587,235.734 352.304,239.018 352.304,243.075L352.304,269.843C352.304,273.9 355.587,277.184 359.645,277.184Z" style="fill:rgb(35,31,32);fill-rule:nonzero;"></path>
        </g>
        <g transform="matrix(4.16667,0,0,4.16667,0,0)">
            <path d="M304.202,295.844C305.636,297.277 307.514,297.994 309.393,297.994C311.271,297.994 313.149,297.277 314.583,295.844C317.45,292.976 317.45,288.331 314.583,285.463L295.657,266.538C292.79,263.671 288.145,263.671 285.277,266.538C282.41,269.406 282.41,274.051 285.277,276.918L304.202,295.844Z" style="fill:rgb(35,31,32);fill-rule:nonzero;"></path>
        </g>
        <g transform="matrix(4.16667,0,0,4.16667,0,0)">
            <path d="M295.915,340.913C295.915,336.855 292.632,333.572 288.575,333.572L261.814,333.572C257.756,333.572 254.473,336.855 254.473,340.913C254.473,344.971 257.756,348.254 261.814,348.254L288.575,348.254C292.632,348.254 295.915,344.971 295.915,340.913Z" style="fill:rgb(35,31,32);fill-rule:nonzero;"></path>
        </g>
    </g>
</svg>
