<?xml version="1.0" encoding="UTF-8"?><svg id="_レイヤー_2" xmlns="http://www.w3.org/2000/svg" viewBox="0 0 206.43 229"><defs><style>.cls-1{fill:#006fbc;}.cls-2{fill:#fff;}.cls-3{fill:#231815;}</style></defs><g id="_レイヤー_1-2"><polygon class="cls-1" points="53 0 6.73 26.1 76.37 12.65 53 0"/><polygon class="cls-1" points="77.12 16.49 49.14 21.53 5.99 137.47 68.96 137.52 77.12 16.49"/><path class="cls-2" d="m186.13,38.57S88.85,41.89,0,139.68c48.43,0,206.21.34,206.21.34l-20.09-101.45Z"/><g><path class="cls-1" d="m8.68,139.8s56.43-67.09,191.23-71.11c6.89,33.45,6.51,71.23,6.51,71.23l-197.74-.13Z"/><path class="cls-1" d="m27.36,118.57s54.28-49.87,171.23-54.38c0,0-1.36-6.21-4.3-11.19-25.87,3.96-111.49,15.7-166.94,65.57Z"/><path class="cls-1" d="m33.45,107s41.74-47.49,152.17-68.55c1.98,2.3,4.6,5.04,6.89,10.4-103.57,12.87-159.06,58.15-159.06,58.15Z"/><path class="cls-1" d="m73.31,73.09s47.08-26.48,108.48-37.97c-6.77-5.62-16.21-8.17-16.21-8.17,0,0-48.89,13.66-91.91,40.66,0,.02-.36,5.48-.36,5.48Z"/><path class="cls-1" d="m74,62.71s28.89-19.72,84.17-37.68c-9.83-2.3-21.77-2.43-21.77-2.43,0,0-28.89,11.09-61.95,33.43.02.02-.45,6.67-.45,6.67Z"/><path class="cls-1" d="m74.55,51.78s27.89-18.38,51.45-28.34c-6.89-.19-17.87,1.15-17.87,1.15,0,0-27.88,15.51-33.05,19.85.01,0-.53,7.34-.53,7.34Z"/><path class="cls-1" d="m75.63,39.58s.52-7.47.52-7.47c0,0,14.94-5.15,21.77-5.66-12.7,7.28-22.28,13.13-22.29,13.13Z"/></g><g><path class="cls-3" d="m54.84,214.94l-.46,11.87c-1.04.34-2.16.64-3.37.91s-2.42.5-3.66.69c-1.24.19-2.46.33-3.66.43-1.2.1-2.32.15-3.37.15-3.32,0-6.3-.52-8.96-1.56-2.66-1.04-4.91-2.52-6.76-4.45-1.85-1.93-3.27-4.27-4.26-7.03-.99-2.76-1.48-5.86-1.48-9.32s.52-6.73,1.56-9.59c1.04-2.86,2.52-5.3,4.45-7.33s4.26-3.59,7.01-4.68c2.74-1.09,5.8-1.63,9.19-1.63.95,0,1.96.04,3.02.13,1.06.09,2.14.22,3.23.39,1.09.17,2.18.38,3.25.61,1.07.24,2.11.51,3.1.81l.39,10.94h-2.28c-.19-2.18-.62-3.95-1.28-5.32-.66-1.37-1.49-2.43-2.49-3.19-1-.76-2.12-1.28-3.38-1.56-1.26-.28-2.59-.42-4-.42s-2.79.12-4.06.36c-1.28.24-2.47.66-3.56,1.26-1.1.6-2.08,1.4-2.96,2.4-.88,1-1.62,2.27-2.23,3.81-.61,1.54-1.08,3.36-1.41,5.47-.34,2.11-.5,4.56-.5,7.36s.16,5.2.49,7.27c.33,2.07.79,3.85,1.38,5.35.6,1.5,1.32,2.73,2.18,3.7.86.97,1.81,1.74,2.86,2.31,1.05.57,2.19.96,3.43,1.18,1.24.22,2.54.33,3.9.33,1.65,0,3.17-.17,4.57-.52,1.4-.35,2.63-.96,3.71-1.84,1.07-.88,1.96-2.07,2.67-3.57.7-1.5,1.19-3.41,1.45-5.72h2.28Z"/><path class="cls-3" d="m71.91,225.58h4.88v2.4h-15.61v-2.4h4.88v-20.74h-4.88v-2.4h10.73v23.14Zm-2.93-31.59c-.56,0-1.08-.08-1.54-.25-.47-.17-.88-.42-1.24-.73-.36-.32-.63-.69-.83-1.12-.19-.43-.29-.91-.29-1.45s.1-1,.31-1.44c.21-.44.48-.82.83-1.14.35-.32.76-.57,1.24-.75.48-.18.99-.27,1.53-.27s1.05.08,1.53.25c.48.17.89.42,1.25.73.36.32.63.69.83,1.12.19.43.29.91.29,1.45s-.1,1.03-.31,1.47c-.21.44-.48.81-.83,1.12-.35.31-.76.55-1.24.73-.48.18-.99.27-1.53.27Z"/><path class="cls-3" d="m93.6,228.4l-11.48-23.56h-10.34v-2.4h21.3v2.4h-4.55l8.06,16.64h.13l8.03-16.64h-4.55v-2.4h13.24v2.4h-5.96l-11.28,23.56h-2.6Z"/><path class="cls-3" d="m123.77,225.58h4.88v2.4h-15.61v-2.4h4.88v-20.74h-4.88v-2.4h10.73v23.14Zm-2.93-31.59c-.56,0-1.08-.08-1.54-.25s-.88-.42-1.24-.73-.63-.69-.83-1.12-.29-.91-.29-1.45.1-1,.31-1.44c.21-.44.48-.82.83-1.14.35-.32.76-.57,1.24-.75.48-.18.99-.27,1.53-.27s1.05.08,1.53.25c.48.17.89.42,1.25.73.36.32.63.69.83,1.12.2.43.29.91.29,1.45s-.1,1.03-.31,1.47c-.21.44-.48.81-.83,1.12-.35.31-.76.55-1.24.73-.48.18-.99.27-1.53.27Z"/><path class="cls-3" d="m142.63,225.58h4.88v2.4h-15.61v-2.4h4.88v-38.76h-4.88v-2.4h10.73v41.15Z"/></g><path class="cls-3" d="m191.21,184.38c-.08-.37-.19-.68-.34-.91-.15-.24-.36-.4-.64-.48-.28-.08-.6-.12-.97-.12h-27.14v6.01h21.85l-17.54,39.31h7.16l16.83-37.88c.16-.37.3-.72.42-1.05s.21-.68.28-1.03c.07-.36.12-.73.16-1.11s.06-.82.06-1.29c0-.58-.04-1.06-.12-1.43Z"/></g></svg>