<?xml version="1.0" encoding="utf-8"?>
<svg xmlns="http://www.w3.org/2000/svg" viewBox="0 0 48 48" fill="#F24957"><path d="M36.5,6h-25C8.467,6,6,8.468,6,11.5v22c0,3.032,2.467,5.5,5.5,5.5h6.478l5.007,4.604C23.271,43.868,23.636,44,24,44 c0.361,0,0.723-0.13,1.009-0.39L30.08,39h6.42c3.033,0,5.5-2.468,5.5-5.5v-22C42,8.468,39.533,6,36.5,6z M25.5,31.5 c0,0.828-0.671,1.5-1.5,1.5s-1.5-0.672-1.5-1.5v-10c0-0.828,0.671-1.5,1.5-1.5s1.5,0.672,1.5,1.5V31.5z M24,17c-1.105,0-2-0.895-2-2 c0-1.105,0.895-2,2-2s2,0.895,2,2C26,16.105,25.105,17,24,17z" fill="#F24957"/></svg>
