<?xml version="1.0" encoding="UTF-8" standalone="no"?>
<svg xmlns="http://www.w3.org/2000/svg" xmlns:xlink="http://www.w3.org/1999/xlink" xmlns:serif="http://www.serif.com/" width="100%" height="100%" viewBox="0 0 11702 9353" version="1.1" xml:space="preserve" style="fill-rule:evenodd;clip-rule:evenodd;stroke-linejoin:round;stroke-miterlimit:2;">
    <g transform="matrix(1,0,0,1,-2835.04,-3656.85)">
        <g transform="matrix(4.16667,0,0,4.16667,0,0)">
            <path d="M1802.78,3042.2C1665.74,3042.2 1534.97,2937.02 1434.55,2746.01C1409.93,2699.2 1387.93,2648.69 1368.67,2595.16C1459.38,2570.04 1591.77,2545.3 1765.27,2543.07L1765.27,2938.03C1765.27,2958.74 1782.07,2975.54 1802.78,2975.54C1823.48,2975.54 1840.27,2958.74 1840.27,2938.03L1840.27,2543.51C2010.79,2547.79 2144.01,2573.57 2235.57,2598.77C2216.62,2650.97 2195.06,2700.25 2170.99,2746.01C2070.57,2937.02 1939.8,3042.2 1802.78,3042.2ZM752.533,2052.69C726.819,1540.14 1074.43,1093.67 1556.16,977.658C1485.4,1035.18 1422.16,1116.38 1368.17,1219.08C1341.6,1269.6 1317.88,1324.16 1297.15,1382.37C1213.44,1352.64 1172.81,1325.23 1171.94,1324.64C1165.43,1320.13 1158,1317.97 1150.64,1317.97C1138.75,1317.97 1127.05,1323.61 1119.77,1334.14C1107.99,1351.17 1112.24,1374.52 1129.27,1386.31C1131.36,1387.76 1178.49,1419.97 1273.78,1453.63C1262.37,1491.64 1252.12,1530.98 1243.09,1571.59C1215.45,1695.91 1200.29,1827.24 1197.92,1962.5L856.041,1962.5C835.331,1962.5 818.54,1979.29 818.54,2000C818.54,2020.71 835.331,2037.5 856.041,2037.5L1197.92,2037.5C1200.29,2172.76 1215.45,2304.09 1243.09,2428.41C1252.12,2469.01 1262.37,2508.36 1273.78,2546.36C1178.49,2580.02 1131.36,2612.24 1129.27,2613.68C1129.27,2613.68 1103.64,2633.71 1123.28,2664.89C1140.93,2690.88 1171.94,2675.36 1171.94,2675.36L1171.84,2675.43C1172.28,2675.13 1213.44,2647.4 1297.15,2617.65C1317.89,2675.84 1341.61,2730.4 1368.17,2780.92C1422.32,2883.92 1485.78,2965.29 1556.79,3022.84C1112.63,2916.76 776.414,2528.52 752.533,2052.69ZM1765.27,2037.5L1765.27,2468.07C1672.31,2469.21 1583.03,2476.6 1499.54,2490.11C1445.54,2498.85 1393.83,2510.16 1345.17,2523.82C1300.99,2376.88 1276.08,2210.94 1272.93,2037.5L1765.27,2037.5ZM1499.54,1509.88C1583.03,1523.39 1672.31,1530.78 1765.27,1531.92L1765.27,1962.5L1272.93,1962.5C1276.08,1789.05 1300.99,1623.11 1345.17,1476.17C1393.83,1489.84 1445.54,1501.14 1499.54,1509.88ZM2773.35,2455.39C2759.69,2455.39 2747.82,2463.06 2741.81,2474.33L2741.8,2474.33C2603.7,2744.09 2350.26,2951.2 2048.88,3022.74C2119.84,2965.2 2183.26,2883.86 2237.38,2780.92C2263.44,2731.34 2286.77,2677.87 2307.22,2620.88C2391.33,2649.85 2434.8,2676.16 2435.29,2676.46C2452.9,2687.35 2475.98,2681.88 2486.87,2664.27C2497.76,2646.65 2492.28,2623.51 2474.67,2612.62C2472.44,2611.26 2424.11,2581.7 2330.76,2549.66C2342.58,2510.64 2353.16,2470.19 2362.45,2428.41C2373.48,2378.82 2373.9,2368.71 2380.93,2317.08C2380.93,2317.05 2380.9,2317.02 2380.9,2316.99C2381.09,2315.46 2381.22,2313.9 2381.22,2312.31C2381.22,2291.44 2364.3,2274.53 2343.44,2274.53C2324.5,2274.53 2308.86,2288.47 2306.12,2306.65C2306.11,2306.68 2306.07,2306.71 2306.07,2306.75C2293.66,2394.13 2283.02,2449.25 2259.27,2527.5C2204.3,2512.16 2146.09,2499.6 2085.67,2490.09C2007.31,2477.75 1924.96,2470.53 1840.27,2468.5L1840.27,2037.5L2051.87,2037.49C2053.34,2037.67 2054.83,2037.78 2056.35,2037.78C2077.22,2037.78 2094.13,2020.87 2094.13,2000C2094.13,1979.13 2077.22,1962.22 2056.35,1962.22C2054.85,1962.22 2053.38,1962.32 2051.92,1962.5L1910.65,1961.26L1840.27,1962.5L1840.27,1531.51C1856.01,1531.13 1987.6,1522.61 2003.13,1521.89C2004.74,1522.1 2006.36,1522.24 2008.03,1522.24C2028.89,1522.24 2045.81,1505.32 2045.81,1484.46C2045.81,1463.58 2028.89,1446.67 2008.03,1446.67C2006.46,1446.67 2004.93,1446.79 2003.42,1446.98L2003.41,1446.8C1987.8,1447.57 1856.11,1456.1 1840.27,1456.49L1840.27,1051.09C1840.27,1030.38 1823.48,1013.6 1802.78,1013.6C1782.07,1013.6 1765.27,1030.38 1765.27,1051.09L1765.27,1456.93C1595.53,1454.79 1464.13,1431.41 1368.65,1404.88C1387.92,1351.33 1409.92,1300.81 1434.55,1253.98C1534.97,1062.98 1665.74,957.792 1802.78,957.792C1884.37,957.792 1967.11,994.09 2040.2,1067.18C2066.71,1093.69 2109.65,1145.89 2114.36,1150.92C2121.27,1158.57 2131.24,1163.4 2142.36,1163.4C2163.22,1163.4 2180.14,1146.48 2180.14,1125.62C2180.14,1115.71 2176.3,1106.72 2170.06,1099.98C2170.06,1099.98 2125.77,1047.89 2089.4,1013.52C2075.8,1000.67 2062.44,988.229 2048.58,977.012C2125.23,995.306 2199.41,1022.25 2270.13,1057.51C2275.13,1060.01 2279.95,1060.71 2284.46,1060.13C2303.44,1059.71 2318.71,1044.23 2318.71,1025.15C2318.71,1014.09 2313.58,1004.25 2305.58,997.838C2303.74,995.977 2301.58,994.347 2299,993.077C2256.36,972.02 2212.37,953.687 2167.22,938.176C2050.29,898.008 1927.99,877.644 1803.69,877.644C1784.75,877.644 1765.53,878.127 1746.55,879.082C1595.24,886.672 1449.93,923.669 1314.64,989.059C1249.62,1020.49 1187.3,1058.48 1129.41,1101.97C1072.07,1145.05 1018.58,1193.89 970.4,1247.15C922.233,1300.41 878.99,1358.52 841.874,1419.88C804.395,1481.84 772.833,1547.65 748.067,1615.49C696.543,1756.63 674.27,1904.92 681.858,2056.23C696.382,2345.7 820.161,2614.91 1030.38,2814.27C1132.65,2911.24 1250.43,2987.23 1380.47,3040.12C1514.61,3094.69 1656.39,3122.36 1801.88,3122.36C1820.82,3122.36 1840.05,3121.88 1859.02,3120.92C1995.21,3114.09 2127.11,3083.25 2251.03,3029.25C2370.75,2977.1 2479.71,2904.87 2574.87,2814.59C2669.13,2725.19 2746.18,2623.99 2804.64,2508.36C2804.76,2508.13 2804.88,2507.9 2805,2507.67C2805.05,2507.56 2805.1,2507.46 2805.16,2507.36L2805.15,2507.36C2807.64,2502.48 2809.08,2496.98 2809.08,2491.13C2809.08,2471.39 2793.08,2455.39 2773.35,2455.39Z" style="fill:rgb(51,49,50);fill-rule:nonzero;"></path>
        </g>
        <g transform="matrix(4.16667,0,0,4.16667,0,0)">
            <path d="M2884.69,1916.44L2881.5,1917.02C2879.96,1917.29 2878.38,1916.86 2877.21,1915.89C2876.01,1914.89 2875.33,1913.42 2875.33,1911.86L2875.33,1662.99C2875.33,1661.33 2876.04,1659.87 2877.36,1658.85C2878.24,1658.16 2879.44,1657.77 2880.64,1657.77C2881.06,1657.77 2881.48,1657.82 2881.86,1657.92L2885.21,1658.77C2919.78,1667.58 2939.73,1678.42 2941.9,1679.64C2985.02,1703.67 3011.18,1743.23 3011.9,1785.45C3012.97,1847.6 2959.46,1902.69 2884.69,1916.44ZM2803.9,1564.45C2803.9,1566.06 2803.21,1567.5 2801.97,1568.51C2800.76,1569.5 2799.18,1569.91 2797.58,1569.57L2794.37,1568.9C2770.75,1563.93 2753.71,1556.95 2742.27,1547.56C2717.92,1526.86 2704.24,1499.91 2703.75,1471.69C2703.25,1442.63 2716.6,1414.69 2741.32,1393.03C2756.15,1380.04 2773.74,1370.25 2793.61,1363.91L2797.04,1362.82C2798.67,1362.3 2800.4,1362.58 2801.76,1363.57C2803.08,1364.54 2803.9,1366.16 2803.9,1367.8L2803.9,1564.45ZM2978.08,1614.75C2971.7,1611.18 2937.08,1592.82 2881.72,1581.85L2879.53,1581.41C2877.1,1580.92 2875.33,1578.76 2875.33,1576.27L2875.33,1364.91C2875.33,1363.27 2876.03,1361.81 2877.33,1360.79C2878.51,1359.85 2880.28,1359.44 2881.78,1359.81L2885.09,1360.6C2907.38,1365.9 2927.98,1375.91 2944.66,1389.54C2970.12,1410.34 2984.41,1437.8 2984.91,1466.86C2985.26,1486.99 3001.97,1503.37 3022.17,1503.37L3022.78,1503.36C3032.63,1503.19 3041.85,1499.17 3048.74,1492.02C3055.65,1484.88 3059.36,1475.49 3059.19,1465.58C3058.3,1414.31 3034.32,1366.87 2991.67,1332.02C2961.83,1307.63 2924.88,1291.33 2884.84,1284.87L2882.63,1284.51C2880.14,1284.11 2878.3,1282.01 2878.22,1279.51L2878.34,1231.13L2878.34,1230.92C2877.99,1210.82 2861.29,1194.45 2841.13,1194.42L2840.57,1194.43C2830.65,1194.61 2821.39,1198.64 2814.5,1205.77C2807.62,1212.88 2803.92,1222.22 2804.06,1232.08L2803.96,1280.49L2803.96,1280.7C2804,1283.24 2802.22,1285.44 2799.72,1285.93L2797.54,1286.37C2757.72,1294.2 2721.36,1311.76 2692.37,1337.15C2650.93,1373.46 2628.59,1421.69 2629.48,1472.96C2630.34,1523 2653.31,1569.6 2694.08,1604.1L2694.77,1604.68C2719.19,1624.89 2751.75,1637.71 2797.27,1645.01L2799.49,1645.37C2802.09,1645.78 2803.9,1647.91 2803.9,1650.54L2803.9,1907.93C2803.9,1909.55 2803.1,1911.16 2801.81,1912.12C2800.56,1913.05 2798.65,1913.39 2797.18,1912.95L2793.74,1911.94C2763.56,1903.09 2737.57,1887.27 2718.58,1866.19C2698.86,1844.3 2688.18,1818.31 2687.71,1791.01C2687.37,1770.89 2670.65,1754.52 2650.46,1754.52L2649.85,1754.52C2639.97,1754.69 2630.75,1758.71 2623.87,1765.84C2616.96,1772.97 2613.26,1782.37 2613.43,1792.29C2613.92,1820.86 2620.98,1848.41 2634.42,1874.19C2647.15,1898.59 2665,1920.27 2687.47,1938.62C2717.55,1963.21 2754.61,1980.5 2794.66,1988.63L2796.72,1989.04C2799.06,1989.51 2800.86,1991.65 2800.92,1994.03L2801.05,2044.17L2801.05,2044.32C2801.4,2064.44 2818.04,2080.81 2838.16,2080.82L2838.22,2080.82L2838.95,2080.81C2848.8,2080.64 2858.02,2076.62 2864.9,2069.49C2871.77,2062.37 2875.48,2053.02 2875.33,2043.13L2875.28,1997.7L2875.28,1997.52C2875.23,1994.83 2877.21,1992.56 2879.87,1992.23L2882.26,1991.94C2933.72,1985.61 2980.38,1965.22 3017.21,1932.97C3039.05,1913.83 3056.14,1891.55 3068.02,1866.74C3080.56,1840.52 3086.67,1812.74 3086.18,1784.18C3084.99,1715.16 3044.57,1651.82 2978.08,1614.75Z" style="fill:rgb(51,49,50);fill-rule:nonzero;"></path>
        </g>
        <g transform="matrix(4.16667,0,0,4.16667,0,0)">
            <path d="M2842.21,2202.42C2525.42,2202.42 2267.68,1944.68 2267.68,1627.89C2267.68,1311.09 2525.42,1053.36 2842.21,1053.36C3159.01,1053.36 3416.74,1311.09 3416.74,1627.89C3416.74,1944.68 3159.01,2202.42 2842.21,2202.42ZM3438.02,1376.17C3405.45,1299.17 3358.83,1230.02 3299.45,1170.64C3240.08,1111.27 3170.93,1064.65 3093.92,1032.08C3014.18,998.35 2929.49,981.247 2842.21,981.247C2754.93,981.247 2670.24,998.35 2590.5,1032.08C2513.49,1064.65 2444.34,1111.27 2384.97,1170.64C2325.59,1230.02 2278.97,1299.17 2246.4,1376.17C2212.67,1455.92 2195.57,1540.61 2195.57,1627.89C2195.57,1715.17 2212.67,1799.86 2246.4,1879.6C2278.97,1956.61 2325.59,2025.76 2384.97,2085.13C2444.34,2144.51 2513.49,2191.13 2590.5,2223.69C2670.24,2257.43 2754.93,2274.53 2842.21,2274.53C2929.49,2274.53 3014.18,2257.43 3093.92,2223.69C3170.93,2191.13 3240.08,2144.51 3299.45,2085.13C3358.83,2025.76 3405.45,1956.61 3438.02,1879.6C3471.75,1799.86 3488.85,1715.17 3488.85,1627.89C3488.85,1540.61 3471.75,1455.92 3438.02,1376.17Z" style="fill:rgb(51,49,50);fill-rule:nonzero;"></path>
        </g>
    </g>
</svg>
