<?xml version="1.0" encoding="UTF-8" standalone="no"?>
<svg xmlns="http://www.w3.org/2000/svg" xmlns:xlink="http://www.w3.org/1999/xlink" xmlns:serif="http://www.serif.com/" width="100%" height="100%" viewBox="0 0 3367 3399" version="1.1" xml:space="preserve" style="fill-rule:evenodd;clip-rule:evenodd;stroke-linejoin:round;stroke-miterlimit:2;">
    <g transform="matrix(1,0,0,1,-2483.4,-2467.42)">
        <g transform="matrix(4.16667,0,0,4.16667,0,0)">
            <path d="M1302.33,813.336L1273.37,813.336L1212.17,720.463L1153.16,813.336L1108.28,813.336L1077.39,865.561L996.187,714.154L944.933,829.475L900.689,829.475C876.889,794.867 864.869,766.064 864.869,743.479C864.869,676.15 919.657,621.373 986.998,621.373C1025.86,621.373 1062.76,640.139 1085.71,671.57L1097.51,687.729L1109.3,671.561C1132.2,640.135 1169.09,621.373 1207.98,621.373C1275.31,621.373 1330.09,676.15 1330.09,743.479C1330.09,762.021 1320.77,785.402 1302.33,813.336ZM1254.94,873.373C1211.34,922.004 1158.97,968.66 1120.74,1002.73C1109.31,1012.9 1099.48,1021.67 1091.66,1028.89C1085.99,1023.61 1079.17,1017.38 1071.39,1010.29C1036.79,978.725 984.507,931.029 940.919,880.795C934.341,873.213 928.195,865.84 922.464,858.668L963.905,858.668L998.645,780.506L1076.15,925.014L1124.93,842.529L1169.2,842.529L1212.62,774.197L1257.65,842.529L1281.04,842.529C1273.25,852.363 1264.56,862.645 1254.94,873.373ZM1336.58,813.336C1351.78,786.914 1359.28,763.76 1359.28,743.479C1359.28,660.053 1291.41,592.18 1207.98,592.18C1166,592.18 1125.89,609.828 1097.49,640.125C1069.06,609.83 1028.95,592.18 986.998,592.18C903.559,592.18 835.676,660.053 835.676,743.479C835.676,768.119 845.64,796.574 865.874,829.475L791.711,829.475L791.711,858.668L885.659,858.668C895.309,871.779 906.366,885.518 918.868,899.926C963.574,951.449 1016.62,999.836 1051.72,1031.86C1064.76,1043.76 1075.07,1053.16 1081.32,1059.41L1091.65,1069.73L1101.97,1059.41C1109.88,1051.5 1123.24,1039.6 1140.15,1024.53C1178.91,989.998 1231.99,942.713 1276.68,892.863C1292.68,875.016 1306.3,858.266 1317.6,842.529L1403.98,842.529L1403.98,813.336L1336.58,813.336Z" style="fill:rgb(34,30,31);fill-rule:nonzero;"></path>
            <path d="M1332.63,1155.21C1329.97,1166.28 1323.05,1175.47 1313.14,1181.08L1024.49,1344.58C1017.36,1348.65 1009.25,1350.8 1001.03,1350.8L881.343,1350.8L775.117,1323.41L744.866,1323.41L744.866,1152.37L785.096,1152.37C794.579,1152.37 804.009,1151.04 813.122,1148.41L876.005,1130.26C881.946,1128.55 888.239,1128.49 894.203,1130.12L1063.32,1176.02L1063.45,1176.06C1073.51,1178.69 1081.86,1185.13 1086.97,1194.19C1092.07,1203.25 1093.25,1213.73 1090.29,1223.71C1084.55,1243.06 1064.65,1254.56 1045.02,1249.9L928.39,1222.21L921.644,1250.62L1038.27,1278.31C1043.48,1279.54 1048.7,1280.14 1053.84,1280.14C1082.96,1280.14 1109.65,1261.08 1118.28,1232.01C1122.42,1218.06 1121.96,1203.54 1117.11,1190.15L1274.67,1109.52C1293.09,1100.13 1315.59,1106.06 1327,1123.31C1333.29,1132.8 1335.28,1144.13 1332.63,1155.21ZM1261.39,1083.52L1101.44,1165.38C1093.11,1156.99 1082.68,1150.93 1070.91,1147.83L901.852,1101.94C890.724,1098.92 878.986,1099.01 867.91,1102.21L805.027,1120.36C798.547,1122.23 791.841,1123.18 785.096,1123.18L744.866,1123.18L744.866,1053.62L596.016,1053.62L596.016,1082.82L715.672,1082.82L715.672,1378.63L596.016,1378.63L596.016,1407.82L744.866,1407.82L744.866,1352.6L771.413,1352.6L877.639,1380L1001.03,1380C1014.32,1380 1027.44,1376.52 1038.93,1369.95L1327.53,1206.48C1344.31,1196.98 1356.52,1180.77 1361.02,1162.02C1365.52,1143.26 1361.99,1123.28 1351.35,1107.2C1331.75,1077.56 1293.08,1067.38 1261.39,1083.52Z" style="fill:rgb(34,30,31);fill-rule:nonzero;"></path>
        </g>
    </g>
</svg>
