<?xml version="1.0" encoding="UTF-8" standalone="no"?>
<svg xmlns="http://www.w3.org/2000/svg" xmlns:xlink="http://www.w3.org/1999/xlink" xmlns:serif="http://www.serif.com/" width="100%" height="100%" viewBox="0 0 1386 1443" version="1.1" xml:space="preserve" style="fill-rule:evenodd;clip-rule:evenodd;stroke-linecap:round;stroke-linejoin:round;stroke-miterlimit:2;">
    <g transform="matrix(1,0,0,1,-557.049,-528.534)">
        <path d="M1204.57,762.02L881.498,762.02L907.935,664.423L1178.14,664.423L1204.57,762.02Z" style="fill:white;fill-rule:nonzero;"></path>
        <path d="M1204.57,762.02L881.498,762.02L907.935,664.423L1178.14,664.423L1204.57,762.02Z" style="fill:none;stroke:rgb(35,35,35);stroke-width:42.93px;"></path>
        <rect x="841.113" y="923.558" width="403.847" height="457.692" style="fill:rgb(132,207,244);fill-rule:nonzero;"></rect>
        <rect x="841.113" y="923.558" width="403.847" height="457.692" style="fill:none;stroke:rgb(35,35,35);stroke-width:42.93px;stroke-linecap:butt;stroke-linejoin:miter;"></rect>
        <path d="M1605.05,1387.98L1275.25,1387.98L1275.25,805.773L1345.92,617.308L1531.02,617.308L1605.05,809.134L1605.05,1387.98Z" style="fill:white;fill-rule:nonzero;"></path>
        <path d="M1605.05,1387.98L1275.25,1387.98L1275.25,805.773L1345.92,617.308L1531.02,617.308L1605.05,809.134L1605.05,1387.98Z" style="fill:none;stroke:rgb(35,35,35);stroke-width:42.93px;"></path>
        <path d="M1551.21,1387.98L1329.09,1387.98C1299.36,1387.98 1275.25,1363.87 1275.25,1334.13L1275.25,775.48C1275.25,745.742 1299.36,721.635 1329.09,721.635L1551.21,721.635C1580.95,721.635 1605.05,745.742 1605.05,775.48L1605.05,1334.13C1605.05,1363.87 1580.95,1387.98 1551.21,1387.98Z" style="fill:white;fill-rule:nonzero;"></path>
        <path d="M1551.21,1387.98L1329.09,1387.98C1299.36,1387.98 1275.25,1363.87 1275.25,1334.13L1275.25,775.48C1275.25,745.742 1299.36,721.635 1329.09,721.635L1551.21,721.635C1580.95,721.635 1605.05,745.742 1605.05,775.48L1605.05,1334.13C1605.05,1363.87 1580.95,1387.98 1551.21,1387.98Z" style="fill:none;stroke:rgb(35,35,35);stroke-width:42.93px;"></path>
        <rect x="841.113" y="762.02" width="403.847" height="619.23" style="fill:white;fill-rule:nonzero;"></rect>
        <rect x="841.113" y="762.02" width="403.847" height="619.23" style="fill:none;stroke:rgb(35,35,35);stroke-width:42.93px;"></rect>
        <path d="M1016.11,1142.31C1016.11,1067.03 970.911,1006.01 915.151,1006.01C859.392,1006.01 814.19,1067.03 814.19,1142.31C814.19,1217.58 859.392,1278.61 915.151,1278.61C970.911,1278.61 1016.11,1217.58 1016.11,1142.31Z" style="fill:white;fill-rule:nonzero;"></path>
        <path d="M1016.11,1142.31C1016.11,1067.03 970.911,1006.01 915.151,1006.01C859.392,1006.01 814.19,1067.03 814.19,1142.31C814.19,1217.58 859.392,1278.61 915.151,1278.61C970.911,1278.61 1016.11,1217.58 1016.11,1142.31Z" style="fill:none;stroke:rgb(35,35,35);stroke-width:42.93px;stroke-linecap:butt;"></path>
        <path d="M1167.56,1142.31C1167.56,1067.03 1122.35,1006.01 1066.59,1006.01C1010.83,1006.01 965.632,1067.03 965.632,1142.31C965.632,1217.58 1010.83,1278.61 1066.59,1278.61C1122.35,1278.61 1167.56,1217.58 1167.56,1142.31Z" style="fill:white;fill-rule:nonzero;"></path>
        <path d="M1167.56,1142.31C1167.56,1067.03 1122.35,1006.01 1066.59,1006.01C1010.83,1006.01 965.632,1067.03 965.632,1142.31C965.632,1217.58 1010.83,1278.61 1066.59,1278.61C1122.35,1278.61 1167.56,1217.58 1167.56,1142.31Z" style="fill:none;stroke:rgb(35,35,35);stroke-width:42.93px;stroke-linecap:butt;"></path>
        <rect x="1366.11" y="940.384" width="299.52" height="336.536" style="fill:white;fill-rule:nonzero;"></rect>
        <rect x="1366.11" y="940.384" width="299.52" height="336.536" style="fill:none;stroke:rgb(35,35,35);stroke-width:42.93px;stroke-linecap:butt;"></rect>
        <path d="M1650.84,879.808L1380.9,879.808C1361.58,879.808 1345.92,895.47 1345.92,914.791L1345.92,915.498C1345.92,934.818 1361.58,950.48 1380.9,950.48L1650.84,950.48C1670.16,950.48 1685.82,934.818 1685.82,915.498L1685.82,914.791C1685.82,895.47 1670.16,879.808 1650.84,879.808Z" style="fill:white;fill-rule:nonzero;"></path>
        <path d="M1650.84,879.808L1380.9,879.808C1361.58,879.808 1345.92,895.47 1345.92,914.791L1345.92,915.498C1345.92,934.818 1361.58,950.48 1380.9,950.48L1650.84,950.48C1670.16,950.48 1685.82,934.818 1685.82,915.498L1685.82,914.791C1685.82,895.47 1670.16,879.808 1650.84,879.808Z" style="fill:none;stroke:rgb(35,35,35);stroke-width:42.93px;stroke-linecap:butt;"></path>
        <path d="M1259.51,1260.1L1257.33,1260.1C1197.52,1260.1 1149.05,1211.62 1149.05,1151.81L1149.05,924.146C1149.05,864.345 1197.52,815.865 1257.33,815.865L1259.51,815.865C1319.32,815.865 1367.8,864.345 1367.8,924.146L1367.8,1151.81C1367.8,1211.62 1319.32,1260.1 1259.51,1260.1Z" style="fill:white;fill-rule:nonzero;"></path>
        <path d="M1259.51,1260.1L1257.33,1260.1C1197.52,1260.1 1149.05,1211.62 1149.05,1151.81L1149.05,924.146C1149.05,864.345 1197.52,815.865 1257.33,815.865L1259.51,815.865C1319.32,815.865 1367.8,864.345 1367.8,924.146L1367.8,1151.81C1367.8,1211.62 1319.32,1260.1 1259.51,1260.1Z" style="fill:none;stroke:rgb(35,35,35);stroke-width:42.93px;stroke-linecap:butt;"></path>
        <rect x="783.901" y="1182.69" width="928.849" height="767.31" style="fill:white;fill-rule:nonzero;"></rect>
        <rect x="783.901" y="1182.69" width="928.849" height="767.31" style="fill:none;stroke:rgb(35,35,35);stroke-width:42.93px;stroke-linecap:butt;"></rect>
        <rect x="783.901" y="1649.44" width="928.849" height="300.56" style="fill:white;fill-rule:nonzero;"></rect>
        <rect x="783.901" y="1649.44" width="928.849" height="300.56" style="fill:none;stroke:rgb(35,35,35);stroke-width:42.93px;stroke-linecap:butt;"></rect>
        <path d="M1534.72,617.308L1345.58,617.308C1327.18,617.308 1312.27,602.391 1312.27,583.99L1312.27,583.317C1312.27,564.917 1327.18,550 1345.58,550L1534.72,550C1553.12,550 1568.04,564.917 1568.04,583.317L1568.04,583.99C1568.04,602.391 1553.12,617.308 1534.72,617.308Z" style="fill:white;fill-rule:nonzero;"></path>
        <path d="M1534.72,617.308L1345.58,617.308C1327.18,617.308 1312.27,602.391 1312.27,583.99L1312.27,583.317C1312.27,564.917 1327.18,550 1345.58,550L1534.72,550C1553.12,550 1568.04,564.917 1568.04,583.317L1568.04,583.99C1568.04,602.391 1553.12,617.308 1534.72,617.308Z" style="fill:none;stroke:rgb(35,35,35);stroke-width:42.93px;"></path>
        <path d="M1480.1,1568.1C1480.1,1436.7 1373.58,1330.17 1242.17,1330.17C1110.76,1330.17 1004.24,1436.7 1004.24,1568.1C1004.24,1699.51 1110.77,1806.04 1242.17,1806.04C1373.58,1806.04 1480.1,1699.51 1480.1,1568.1Z" style="fill:white;fill-rule:nonzero;"></path>
        <path d="M1480.1,1568.1C1480.1,1436.7 1373.58,1330.17 1242.17,1330.17C1110.76,1330.17 1004.24,1436.7 1004.24,1568.1C1004.24,1699.51 1110.77,1806.04 1242.17,1806.04C1373.58,1806.04 1480.1,1699.51 1480.1,1568.1Z" style="fill:none;stroke:rgb(35,35,35);stroke-width:42.93px;"></path>
        <path d="M1260.15,1704.59C1250.22,1714.52 1234.12,1714.52 1224.19,1704.59L1119.32,1599.7C1086.93,1567.33 1089.43,1513.27 1126.82,1484.24C1157.74,1460.25 1202.28,1464.99 1229.97,1492.65L1242.17,1504.83L1254.37,1492.65C1282.06,1464.99 1326.6,1460.25 1357.52,1484.24C1394.91,1513.27 1397.41,1567.33 1365.02,1599.7L1260.15,1704.59Z" style="fill:white;fill-rule:nonzero;"></path>
        <path d="M1260.15,1704.59C1250.22,1714.52 1234.12,1714.52 1224.19,1704.59L1119.32,1599.7C1086.93,1567.33 1089.43,1513.27 1126.82,1484.24C1157.74,1460.25 1202.28,1464.99 1229.97,1492.65L1242.17,1504.83L1254.37,1492.65C1282.06,1464.99 1326.6,1460.25 1357.52,1484.24C1394.91,1513.27 1397.41,1567.33 1365.02,1599.7L1260.15,1704.59Z" style="fill:none;stroke:rgb(35,35,35);stroke-width:42.93px;stroke-linecap:butt;"></path>
        <path d="M782.646,1182.8L578.515,919.576" style="fill:none;fill-rule:nonzero;"></path>
        <path d="M782.646,1182.8L578.515,919.576" style="fill:none;stroke:rgb(35,35,35);stroke-width:42.93px;"></path>
        <path d="M1717.35,1182.8L1921.49,919.576" style="fill:none;fill-rule:nonzero;"></path>
        <path d="M1717.35,1182.8L1921.49,919.576" style="fill:none;stroke:rgb(35,35,35);stroke-width:42.93px;"></path>
        <path d="M1217.77,967.923L1292.97,924.947" style="fill:none;fill-rule:nonzero;"></path>
        <path d="M1217.77,967.923L1292.97,924.947" style="fill:none;stroke:rgb(35,35,35);stroke-width:42.93px;"></path>
        <path d="M1223.14,1064.62L1298.35,1021.64" style="fill:none;fill-rule:nonzero;"></path>
        <path d="M1223.14,1064.62L1298.35,1021.64" style="fill:none;stroke:rgb(35,35,35);stroke-width:42.93px;"></path>
    </g>
</svg>
